<?xml version="1.0" encoding="UTF-8"?><svg xmlns="http://www.w3.org/2000/svg" viewBox="0 0 352 30"><defs><style>.v{fill:#fff;}</style></defs><path id="a" class="v" d="M0,16.09H4.31c.31,2.97,2.26,4.47,5.79,4.47,2.51,0,4.59-1.09,4.59-3.38,0-2.48-2.29-3.04-5.95-3.88C4.43,12.34,.83,11.2,.83,6.58,.84,2.2,4.43,0,9.36,0,14.73,0,17.83,2.57,18.26,6.82h-4.19c-.34-2.26-2.05-3.53-4.77-3.53-2.57,0-4.28,1.09-4.28,2.91,0,2.14,2.23,2.7,5.8,3.44,4.28,.93,8.22,2.2,8.22,7.19,0,4.59-3.84,7.16-8.96,7.16C3.75,24,.19,20.81,0,16.09"/><path id="b" class="v" d="M24.84,9.3h.09c1.06-1.8,3.02-2.89,5.12-2.82,3.57,0,5.71,2.2,5.71,5.77v11.22h-3.94V12.9c.15-1.59-1.02-3.01-2.61-3.16-.18-.02-.37-.02-.55,0-2.07-.01-3.75,1.66-3.76,3.72,0,.1,0,.21,.01,.31v9.71h-3.94V.4h3.94V6.6c0,.46-.03,1.74-.06,2.7"/><path id="c" class="v" d="M38.05,.4h4.03v3.81h-4.03V.4Zm.06,6.51h3.94V23.47h-3.94V6.91Z"/><path id="d" class="v" d="M48.4,21.08h-.09v2.39h-3.81V.4h3.94V5.86c0,1.3-.06,2.64-.12,3.5h.09c1.05-1.82,3.01-2.93,5.12-2.88,4.25,0,7.1,3.47,7.1,8.74s-2.73,8.77-7.13,8.77c-2.12,.11-4.11-1.03-5.08-2.91m8.22-5.89c0-3.26-1.33-5.64-3.97-5.64-3.01,0-4.37,2.51-4.37,5.67s1.52,5.55,4.37,5.55c2.64,0,3.97-2.26,3.97-5.58"/><path id="e" class="v" d="M72.9,23.47v-2.36h-.06c-1.02,1.78-2.94,2.85-4.99,2.79-3.63,0-5.74-2.26-5.74-5.83V6.92h3.94v10.6c-.16,1.55,.96,2.94,2.51,3.1,.19,.02,.39,.02,.58,0,2.23,0,3.66-1.71,3.66-4V6.92h3.91V23.47h-3.81Z"/><path id="f" class="v" d="M79.16,28.93v-3.19h.22c.54,.11,1.09,.16,1.64,.15,1.17,.16,2.25-.66,2.42-1.83,.09-.92,.03-1.86-.19-2.76l-5.7-14.39h4.19l2.73,7.69c.71,2.05,1.4,5.15,1.4,5.15h.06s.74-3.13,1.43-5.15l2.64-7.69h3.97l-6.41,17.48c-1.36,3.66-2.79,4.71-5.49,4.71-.96,0-1.93-.07-2.88-.19"/><path id="g" class="v" d="M104.34,21.33h-.06c-1.18,1.69-3.15,2.65-5.21,2.54-3.22,0-5.64-1.67-5.64-4.9,0-3.75,2.85-4.65,6.79-5.12,2.73-.34,4.09-.77,4.09-2.26s-.99-2.39-2.98-2.39c-2.2,0-3.29,1.02-3.38,2.67h-3.72c.12-2.82,2.36-5.39,7.07-5.39,1.54-.1,3.08,.23,4.43,.96,1.6,1.01,2.51,2.83,2.36,4.71v8.71c0,1.36,.25,2.08,.62,2.33v.28h-3.81c-.38-.65-.58-1.39-.56-2.14m.06-3.88v-2.45c-1.01,.54-2.1,.9-3.22,1.09-2.42,.46-3.81,.96-3.81,2.79s1.33,2.3,2.85,2.3c2.7,0,4.19-1.86,4.19-3.72"/><path id="h" class="v" d="M123.64,16.09h4.31c.31,2.98,2.26,4.47,5.8,4.47,2.51,0,4.59-1.09,4.59-3.38,0-2.48-2.29-3.04-5.95-3.88-4.31-.96-7.91-2.11-7.91-6.73,0-4.37,3.6-6.57,8.52-6.57,5.36,0,8.46,2.57,8.9,6.82h-4.18c-.34-2.26-2.05-3.53-4.78-3.53-2.57,0-4.28,1.09-4.28,2.91,0,2.14,2.23,2.7,5.8,3.44,4.28,.93,8.22,2.2,8.22,7.19,0,4.59-3.84,7.16-8.96,7.16-6.33,0-9.89-3.19-10.08-7.91"/><path id="i" class="v" d="M143.45,6.91h2.55V1.64h3.88V6.91h3.32v2.7h-3.32v9.27c0,1.21,.65,1.55,1.77,1.55,.43,0,.85-.05,1.27-.12h.19v3.07c-.86,.16-1.73,.25-2.6,.25-2.67,0-4.5-.96-4.5-3.88V9.61h-2.55v-2.7Z"/><path id="j" class="v" d="M165.16,21.33h-.06c-1.18,1.69-3.15,2.65-5.21,2.54-3.23,0-5.64-1.67-5.64-4.9,0-3.75,2.85-4.65,6.79-5.12,2.73-.34,4.09-.78,4.09-2.26s-.99-2.39-2.98-2.39c-2.2,0-3.29,1.02-3.38,2.67h-3.72c.12-2.82,2.36-5.4,7.07-5.4,1.54-.1,3.07,.23,4.43,.96,1.6,1.01,2.51,2.83,2.36,4.71v8.71c0,1.36,.25,2.08,.62,2.33v.28h-3.81c-.38-.65-.58-1.39-.56-2.14m.06-3.88v-2.45c-1.01,.54-2.1,.9-3.22,1.09-2.42,.46-3.81,.96-3.81,2.79s1.33,2.29,2.85,2.29c2.7,0,4.19-1.86,4.19-3.72"/><path id="k" class="v" d="M175.24,9.89h.09c1.05-2.14,2.64-3.22,4.74-3.22,.36-.02,.72,.03,1.05,.16v3.53h-.12c-.35-.09-.72-.13-1.09-.12-2.6-.03-4.56,1.74-4.56,4.93v8.31h-3.94V6.91h3.81v2.97Z"/><path id="l" class="v" d="M181.75,6.91h2.54V1.64h3.88V6.91h3.32v2.7h-3.32v9.27c0,1.21,.65,1.55,1.77,1.55,.43,0,.85-.05,1.27-.12h.19v3.07c-.86,.16-1.73,.25-2.6,.25-2.67,0-4.5-.96-4.5-3.88V9.61h-2.54v-2.7Z"/><path id="m" class="v" d="M203.79,23.47v-2.36h-.06c-1.02,1.78-2.94,2.85-4.99,2.79-3.63,0-5.74-2.26-5.74-5.83V6.91h3.94v10.61c-.16,1.55,.96,2.94,2.52,3.1,.19,.02,.39,.02,.58,0,2.23,0,3.66-1.71,3.66-4V6.91h3.91V23.47h-3.81Z"/><path id="n" class="v" d="M210.09,6.91h3.81v2.45h.09c1.04-1.85,3.03-2.96,5.15-2.88,4.31,0,7.13,3.47,7.13,8.74s-2.79,8.77-7.26,8.77c-2.03,.08-3.94-.92-5.02-2.64h-.09c.06,.62,.12,1.67,.12,3.22v4.43h-3.94V6.91Zm12.19,8.4c0-3.29-1.33-5.64-4.03-5.64-2.98,0-4.37,2.51-4.37,5.64s1.36,5.55,4.4,5.55c2.61,0,4-2.3,4-5.55"/><path id="o" class="v" d="M240.14,16.09h4.31c.31,2.98,2.26,4.47,5.8,4.47,2.51,0,4.59-1.09,4.59-3.38,0-2.48-2.29-3.04-5.95-3.88-4.31-.96-7.91-2.11-7.91-6.73,0-4.37,3.6-6.57,8.52-6.57,5.36,0,8.46,2.57,8.9,6.82h-4.19c-.34-2.26-2.05-3.53-4.78-3.53-2.57,0-4.28,1.09-4.28,2.91,0,2.14,2.23,2.7,5.8,3.44,4.28,.93,8.22,2.2,8.22,7.19,0,4.59-3.84,7.16-8.96,7.16-6.33,0-9.89-3.19-10.08-7.91"/><path id="p" class="v" d="M271.77,23.47v-2.36h-.06c-1.02,1.78-2.94,2.85-4.99,2.79-3.63,0-5.74-2.26-5.74-5.83V6.91h3.94v10.61c-.16,1.55,.97,2.94,2.52,3.1,.19,.02,.39,.02,.58,0,2.23,0,3.66-1.71,3.66-4V6.91h3.91V23.47h-3.81Z"/><path id="q" class="v" d="M278.06,6.91h3.81v2.45h.09c1.04-1.85,3.03-2.96,5.15-2.88,4.31,0,7.13,3.47,7.13,8.74s-2.79,8.77-7.26,8.77c-2.03,.09-3.94-.92-5.02-2.64h-.09c.06,.62,.12,1.67,.12,3.22v4.43h-3.94V6.91Zm12.19,8.4c0-3.29-1.33-5.64-4.03-5.64-2.98,0-4.37,2.51-4.37,5.64s1.36,5.55,4.4,5.55c2.6,0,4-2.3,4-5.55"/><path id="r" class="v" d="M295.89,6.91h3.81v2.45h.09c1.04-1.85,3.03-2.96,5.15-2.88,4.31,0,7.13,3.47,7.13,8.74s-2.79,8.77-7.26,8.77c-2.03,.08-3.94-.92-5.02-2.64h-.09c.06,.62,.12,1.67,.12,3.22v4.43h-3.94V6.91Zm12.19,8.4c0-3.29-1.33-5.64-4.03-5.64-2.98,0-4.37,2.51-4.37,5.64s1.36,5.55,4.4,5.55c2.6,0,4-2.3,4-5.55"/><path id="s" class="v" d="M312.88,15.22c0-4.93,3.32-8.74,8.47-8.74s8.4,3.81,8.4,8.74-3.26,8.74-8.4,8.74-8.47-3.84-8.47-8.74m12.87,0c0-3.35-1.55-5.83-4.43-5.83s-4.43,2.48-4.43,5.83,1.52,5.77,4.43,5.77,4.43-2.45,4.43-5.77"/><path id="t" class="v" d="M335.21,9.89h.09c1.05-2.14,2.64-3.22,4.74-3.22,.36-.02,.72,.03,1.05,.16v3.53h-.12c-.35-.09-.72-.13-1.09-.12-2.6-.03-4.56,1.74-4.56,4.93v8.31h-3.94V6.91h3.81v2.97Z"/><path id="u" class="v" d="M341.72,6.91h2.54V1.64h3.88V6.91h3.32v2.7h-3.32v9.27c0,1.21,.65,1.55,1.77,1.55,.43,0,.85-.05,1.27-.12h.19v3.07c-.86,.16-1.73,.25-2.6,.25-2.67,0-4.5-.96-4.5-3.88V9.61h-2.54v-2.7Z"/></svg>